/* XPM */
static char *result[] = {
/* columns rows colors chars-per-pixel */
"30 30 6 1 ",
"  c #77747C",
". c #86838C",
"X c #A09EA8",
"o c #A7A7A7",
"O c #AFAFAF",
"+ c #B9B9B9",
/* pixels */
"OOOOOOOOOOOOOO.+++++++++++++++",
"OOOOOOOOOOOOOO +++++++++++++++",
"OOOOOOOOOOOOOO.+++++++++++++++",
"OOOOOOOOOOOOOO.+++++++++++++++",
"OOOOOOOOOOOOOO.+++++++++++++++",
"OOOOOOOOOOOOOO.+++++++++++++++",
".. ..... ....... ..... ...  ..",
"oooooo.XXXXXXXXXXXXXXX.ooooooo",
"oooooo.XXXXXXXXXXXXXXX.ooooooo",
"oooooo.XXXXXXXXXXXXXXX.ooooooo",
"oooooo.XXXXXXXXXXXXXXX.ooooooo",
"oooooo.XXXXXXXXXXXXXXX.ooooooo",
"oooooo XXXXXXXXXXXXXXX.ooooooo",
"oooooo.XXXXXXXXXXXXXXX.ooooooo",
"..  ..... ..... ...... ...  ..",
"++++++++++++++.OOOOOOOOOOOOOOO",
"++++++++++++++.OOOOOOOOOOOOOOO",
"++++++++++++++.OOOOOOOOOOOOOOO",
"++++++++++++++.OOOOOOOOOOOOOOO",
"++++++++++++++.OOOOOOOOOOOOOOO",
"++++++++++++++.OOOOOOOOOOOOOOO",
"++++++++++++++.OOOOOOOOOOOOOOO",
"..  ....  ...... ..... ...  ..",
"XXXXXX.ooooooooooooooo.XXXXXXX",
"XXXXXX.ooooooooooooooo.XXXXXXX",
"XXXXXX.ooooooooooooooo.XXXXXXX",
"XXXXXX.ooooooooooooooo XXXXXXX",
"XXXXXX.ooooooooooooooo.XXXXXXX",
"XXXXXX ooooooooooooooo.XXXXXXX",
"XXXXXX.ooooooooooooooo XXXXXXX"
};