/* XPM */
static char *result[] = {
/* columns rows colors chars-per-pixel */
"100 100 78 1 ",
"  c #010101",
". c #0C0100",
"X c #0B0B0B",
"o c #130300",
"O c #1B0400",
"+ c #141313",
"@ c #1C1C1C",
"# c #230501",
"$ c #2C0601",
"% c #320601",
"& c #3B0000",
"* c #340801",
"= c #3C0902",
"- c #242424",
"; c #2B2B2B",
": c #343434",
"> c #3C3C3C",
", c #440000",
"< c #4A0000",
"1 c #440A02",
"2 c #4C0C02",
"3 c #550000",
"4 c #5B0000",
"5 c #530D02",
"6 c #5C0E03",
"7 c #620000",
"8 c #6D0000",
"9 c #620F03",
"0 c #7B0100",
"q c #770F03",
"w c #7C0E03",
"e c #661103",
"r c #6D1104",
"t c #741204",
"y c #7A1304",
"u c #434343",
"i c #4B4B4B",
"p c #535353",
"a c #5C5C5C",
"s c #636363",
"d c #6B6B6B",
"f c #747474",
"g c #7B7B7B",
"h c #820000",
"j c #8F0000",
"k c #830E03",
"l c #890C02",
"z c #930000",
"x c #9E0000",
"c c #950A02",
"v c #9A0B02",
"b c #A50200",
"n c #AC0300",
"m c #A00801",
"M c #B30200",
"N c #BB0100",
"B c #C40100",
"V c #CE0000",
"C c #D10000",
"Z c #DB0000",
"A c #E10000",
"S c #848484",
"D c #8B8B8B",
"F c #939393",
"G c #9C9C9C",
"H c #A3A3A3",
"J c #ADADAD",
"K c #B1B1B1",
"L c #BCBCBC",
"P c #C1C1C1",
"I c #CCCCCC",
"U c #D3D3D3",
"Y c #DBDBDB",
"T c #E4E4E4",
"R c #ECECEC",
"E c #F4F4F4",
"W c #F9F9F9",
"Q c None",
/* pixels */
"QQQQQQQQQQQQQQQQQQQQQQQQQQQQQQQQQQQQQQQQQQQQQQQQQQQQQQQQQQQQQQQQQQQQQQQQQQQQQQQQQQQQQQQQQQQQQQQQQQQQ",
"QQQQQQQQQQQQQQQQQQQQQQQQQQQQQQQQQQQQQQQQQQQQQQQQQQQQQQQQQQQQQQQQQQQQQQQQQQQQQQQQQQQQQQQQQQQQQQQQQQQQ",
"QQQQQQQQQQQQQQQQQQQQQQQQQQQQQQQQQQQQQQQQQQQQQQQQQQQQQQQQQQQQQQQQQQQQQQQQQQQQQQQQQQQQQQQQQQQQQQQQQQQQ",
"QQQQQQQQQQQQQQQQQQQQQQQQQQQQQQQQQQQQQQQQQQQQQQQQQQQQQQQQQQQQQQQQQQQQQQQQQQQQQQQQQQQQQQQQQQQQQQQQQQQQ",
"QQQQQQQQQQQQQQQQQQQQQQQQQQQQQQQQQQQQQQQQQQQQQQQQQQQQQQQQQQQQQQQQQQQQQQQQQQQQQQQQQQQQQQQQQQQQQQQQQQQQ",
"QQQQQQQQQQQQQQQQQQQQQQQQQQQQQQQQQQQQQQQQQQQQQQQQQQQQQQQQQQQQQQQQQQQQQQQQQQQQQQQQQQQQQQQQQQQQQQQQQQQQ",
"QQQQQQQQQQQQQQQQQQQQQQQQQQQQQQQQQQQQQQQQQQQQQQQQQQQQQQQQQQQQQQQQQQQQQQQQQQQQQQQQQQQQQQQQQQQQQQQQQQQQ",
"QQQQQQQQQQQQQQQQQQQQQQQQQQQQQQQQQQQQQQQQQQQQQQQQQQQQQQQQQQQQQQQQQQQQQQQQQQQQQQQQQQQQQQQQQQQQQQQQQQQQ",
"QQQQQQQQQQQQQQQQQQQQQQQQQQQQQQQQQQQQQQQQQQQQQQQQQQQQQQQQQQQQQQQQQQQQQQQQQQQQQQQQQQQQQQQQQQQQQQQQQQQQ",
"QQQQQQQQQQQQQQQQQQQQQQQQQQQQQQQQQQQQQQQQQQQQQQQQQQQQQQQQQQQQQQQQQQQQQQQQQQQQQQQQQQQQQQQQQQQQQQQQQQQQ",
"QQQQQQQQQQQQQQQQQQQQQQQQQQQQQQQQQQQQQQQQQQQQQQQQQQQQQQQQQQQQQQQQQQQQQQQQQQQQQQQQQQQQQQQQQQQQQQQQQQQQ",
"QQQQQQQQQQQQQQQQQQQQQQQQQQQQQQQQQQQQQQQQQQQQQQQQQQQQQQQQQQQQQQQQQQQQQQQQQQQQQQQQQQQQQQQQQQQQQQQQQQQQ",
"QQQQQQQQQQQQQQQQQQQQQQQQQQQQQQQQQQQQQQQQQQQQQQQQQQQQQQQQQQQQQQQQQQQQQQQQQQQQQQQQQQQQQQQQQQQQQQQQQQQQ",
"QQQQQQQQQQQQQQQQQQQQQQQQQQQQQQQQQQQQQQQQQdu-X           @;igQQQQQQQQQQQQQQQQQQQQQQQQQQQQQQQQQQQQQQQQ",
"QQQQQQQQQQQQQQQQQQQQQQQQQQQQQQQQQQQQQQ:                      X:fQQQQQQQQQQQQQQQQQQQQQQQQQQQQQQQQQQQQ",
"QQQQQQQQQQQQQQQQQQQQQQQQQQQQQQQQQQd-            o...             +QQQQQQQQQQQQQQQQQQQQQQQQQQQQQQQQQQ",
"QQQQQQQQQQQQQQQQQQQQQQQQQQQQQQQQu        o%40zbMBNNNNNMz8,#        -QQQQQQQQQQQQQQQQQQQQQQQQQQQQQQQQ",
"QQQQQQQQQQQQQQQQQQQQQQQQQQQQQQ>      X&0nVCZZZZZCZCZCZZZZZCNj4$      >QQQQQQQQQQQQQQQQQQQQQQQQQQQQQQ",
"QQQQQQQQQQQQQQQQQQQQQQQQQQQQ>     .&hNZZZCCVVVVVVVVVCVVVVVCZZZZb$     aQQQQQQQQQQQQQQQQQQQQQQQQQQQQQ",
"QQQQQQQQQQQQQQQQQQQQQQQQQQQ     .3nZZCVVVCVCVCCCCCCVVCVVVCVVVCVZZ0.    QQQQQQQQQQQQQQQQQQQQQQQQQQQQQ",
"QQQQQQQQQQQQQQQQQQQQQQQQQ> X  .7NZZVVCCCVCCCCCVCVVCCCCCCVCVCCCCVCve#   XQQQQQQQQQQQQQQQQQQQQQQQQQQQQ",
"QQQQQQQQQQQQQQQQQQQQQQQQX    *MACVVCCCVCVCCCCCCCCVCVCVVCCVCCCCVZnetr#   QQQQQQQQQQQQQQQQQQQQQQQQQQQQ",
"QQQQQQQQQQQQQQQQQQQQQQQ    ohCZVVCCVCCCCCVVCVVCVVCCCCCCVCCCVCVCVtrrrro  ;QQQQQQQQQQQQQQQQQQQQQQQQQQQ",
"QQQQQQQQQQQQQQQQQQQQQQ  . #MAVVCVCVCCVCVCCCCCCCCCCVCVVCCCCVCVVZcrtrry1   QQQQQQQQQQQQQQQQQQQQQQQQQQQ",
"QQQQQQQQQQQQQQQQQQQQQ    &BZVCVCCCCCVCCCCVCCCCVCVCCCCCCCVCVVCZverrrrre   aQQQQQQQQQQQQQQQQQQQQQQQQQQ",
"QQQQQQQQQQQQQQQQQQQQ@ . ,CCCCCVCCCCCCVVVCCCCCCCVCCCVCCVCCCZZNcrrrrrrrr.  uQQQQQQQQQQQQQQQQQQQQQQQQQQ",
"QQQQQQQQQQQQQQQQQQQ:   $CCVCCCCCVVVCCCZZCCCVVVCCCCVCCZCCVBnlrrrrrrrrreo  uQQQQQQQQQQQQQQQQQQQQQQQQQQ",
"QQQQQQQQQQQQQQQQQQa   oNCVCCVCCCCCZCVNmvclkwywywkwkkkkkkyrrrrrrrrrrrreo  pQQQQQQQQQQQQQQQQQQQQQQQQQQ",
"QQQQQQQQQQQQQQQQQQ    xZVCVCCCZCNnvktrreeeerrerrererreerrrrrrrrrrrrrte   QQQQQQQQQQQQQQQQQQQQQQQQQQQ",
"QQQQQQQQQQQQQQQQQf . <ZVVZZCVMcyteerrtrtrrrtrrtrrrtrrrrtrrrrrrtrrrrry2   dQQQQQQQQQQQQQQQQQQQQQQQQQQ",
"QQQQQQQQQQQQQQQQQ@   nZCCBmlteerrttrrrrrrrrrrrrrrrrrrrrrrtrrrrrrrrrry*         @fQQQQQQQQQQQQQQQQQQQ",
"QQQQQQQQQQQQQQQQQ   <ZNmkrrrrrtrrrrrrrtrrrrrrrrrrrrrrrrrrrrrrrrrrrrr6             fQQQQQQQQQQQQQQQQQ",
"QQQQQQQQQQQQQQQQs . 6krerrrrrrrrrrrrrrrrrrrrrrrrrrrrrrrrrrrrrrrrrrrro     .        :QQQQQQQQQQQQQQQQ",
"QQQQQQQQQQQQQQQQp  .6rttrrrrrrrrrrrrrrrrrtttttyttytttyytrrrrrrrrrrt$    =6e665*.    @QQQQQQQQQQQQQQQ",
"QQQQQQQQQQQQQQQQu  Otrrrrrrrrrrrrrrrttttr66221==**$$#*15erryrrrrry2    $ytrttttt2  X -QQQQQQQQQQQQQQ",
"QQQQQQQQQQQQQQQQ:  #trrrrrrrrrrrrtyre5=O.                .#=5rrtte.   .rrrrrrrrrt6    :QQQQQQQQQQQQQ",
"QQQQQQQQQQQQQQQQ;  #trrrrrrrrryt61*O.              .         .#=e$    2trrrrrrrrry6.   QQQQQQQQQQQQQ",
"QQQQQQQQQQQQQQQQ@  $trrrrrrttr1O                                     *trrrrrrrrrrrt=   -QQQQQQQQQQQQ",
"QQQQQQQQQQQQQQQQ+  $trrrrtt9*.          .O*11225555521=$#o.         otrrtrrrrrrrrrrr.   QQQQQQQQQQQQ",
"QQQQQQQQQQQQQQQQ;  #trrrt6*         O=29rttttttttttttytttt92*o       *rrrrrrtrrrrrry=   pQQQQQQQQQQQ",
"QQQQQQQQQQQQQQQQp  Orrtr*   .   .O=6rtttrrrrrrrrrrrrrrrrretttr6*.     oetrrrrrrrrrrt9   +QQQQQQQQQQQ",
"QQQQQQQQQQQQQQQQf  ott2.      o=9tttrrrrrtrrrrrtrrrrrrrrrrrrrrtt9$     o9trrrrrrrtrrt#   QQQQQQQQQQQ",
"QQQQQQQQQQQQQQQQQ  .6$      #6tttrrrrrrrrrrrrrrrrrrrrrrrrrrrrrrrtt6#    o9trrrrrrrrrt1 X QQQQQQQQQQQ",
"QQQQQQQQQQQQQQQQQX  .     o5ttrrrrrrrrrtrttttttttttrrrrrrtrrrrrrrrty2    ortrrrrtrrrt2   QQQQQQQQQQQ",
"QQQQQQQQQQQQQQQQQu      .1rtrrrrrrrttttr995511=1569tttrrrrrrrrrrrrrrt1    #trrtrrrrrt2   QQQQQQQQQQQ",
"QQQQQQQQQQQQQQQQQu    .=rtrrrrrrrtt95*Oo..        .O19ttrrrrrrrrrrrrrt1    1trrrrrrrt2   QQQQQQQQQQQ",
"QQQQQQQQQQQQQQQQQ    o6trrrrrrrtr2O.                 .O19trrrrrtrrrrrrt$   .rtrrrrrrt2   QQQQQQQQQQQ",
"QQQQQQQQQQQQQQQQ    .9trrrrrrtr=.     .O$*=2211=*$#o    .=ttrrrrrrtrrrrr.   2trrrrrrt1   QQQQQQQQQQQ",
"QQQQQQQQQQQQQQQ:   .etrrrrrtt5o    .$29tttttttyttyte5=o   O6trrrrrrrrrrt1   Orrrrrtrt=   QQQQQQQQQQQ",
"QQQQQQQQQQQQQQQ   .6trrrrrtr$   .$5rttrrrrrrrrrrrrrqttr2O   1trrrrrrrrrtro   6trrrrrt$   QQQQQQQQQQQ",
"QQQQQQQQQQQQQQ@   5trrrrrt9.  .2rtttrrrrrrrrrrrrrrrrrrttt2   =trrrrrrrrrt5   *terrrrto  +QQQQQQQQQQQ",
"QQQQQQQQQQQQQf   =trrrrrt9o  O9ttrrrrrrrrrrrrrrrtrrrrrrrry9o  =yrrrrrrrrrr.  .rtrrrte   uQQQQQQQQQQQ",
"QQQQQQQQQQQQQ+  .rrrrrrt9o  #rtrrrrrrrrrrtttrrrrrrrrrrrrrrtro  6trrrrrrrrtO . 2trtet1.  QQQQQQQQQQQQ",
"QQQQQQQQQQQQg . =trrrrrrO  #ttrrrrrrrtttr952etttrrrrrrrrrrrt6  Orrrrrrrrrt$   1tertro   QQQQQQQQQQQQ",
"QQQQQQQQQQQQ-  .etrrrrt1  .etrrrrrrtte=#..  .o$6ttrrrrrrrrtry1  1yrrrrrrrt=   =tret2   :QQQQQQQQQQQQ",
"QQQQQQQQQQQQ   =trrrrtr.  2trrrrrrt6#           $etetrrrtrrrrr. Otrrrtrrrt2 . *yrrtO   QQQQQQQQQQQQQ",
"QQQQQQQQQQQs   6trrrrt=  otrrrrrrt=     +-+X     .6trrrrrrrrrt$  9trrrrrrt6   $trt2 . ;QQQQQQQQQQQQQ",
"QQQQQQQQQQQ@  .rrrrtrro  1trrrrrt1   X>fFHGDgp+   Orrrrrrrrrrt2  1trrrrrrrr.  $trro   QQQQQQQQQQQQQQ",
"QQQQQQQQQQQ   $trrrrre. .tttytty9.  @gJLPUYYYIG;   5trrrrrrrrt9. #trrrrrrr9.  $tt=   ;QQQQQQQQQQQQQQ",
"QQQQQQQQQQQ   *trrreye  o5=$$$*1O  +DLIYRRRRRTYH;  *trrrtrrrrrrO Orrttrrrt9   *y6    QQQQQQQQQQQQQQQ",
"QQQQQQQQQQQ   *trrtt5#            +SPYTREEEEEQQUF+ #trrrrrrrrrt# orrrrrrrt6   =yO   iQQQQQQQQQQQQQQQ",
"QQQQQQQQQQQ   *trrt=             +DQYRREWEWEEQQUJ- #trrrrrrrrrt# .etrrrrrt6   1*   +QQQQQQQQQQQQQQQQ",
"QQQQQQQQQQQ   *trt=    X>asddffgSQQQQQQEEEEEQQQQD  $trrrrrrtrrtO  6trrtrrt5   .    QQQQQQQQQQQQQQQQQ",
"QQQQQQQQQQQ   $tt2    iGPUUUUIUUQQQQQQQQQQQQQQQQ;  5trrrtrrrrrt# .9rrrrrrt2       dQQQQQQQQQQQQQQQQQ",
"QQQQQQQQQQQX  #yro  XdKUYTTRTTTQQQQQQQQQQQQQQQf@  $trrrrrrrrrrto .rrrrrrrt2      >QQQQQQQQQQQQQQQQQQ",
"QQQQQQQQQQQ>  ot2   aHPTREEEEEEQQQQQQQQQQQQQ-X   #rrrrrrrrrrrr9. Otrrrrrrt*     -QQQQQQQQQQQQQQQQQQQ",
"QQQQQQQQQQQQ   9*  -dLTREEEEEERQQQQQQQQQQQQg   .=rrrtrrrrrtrrt5  #trrrrrrr.    +QQQQQQQQQQQQQQQQQQQQ",
"QQQQQQQQQQQQ   $O  udJYWWEEERIguQQQQQQQQQQQQ-  *yrrrtrrrrrrrrt$  2trrrtrt5   XiQQQQQQQQQQQQQQQQQQQQQ",
"QQQQQQQQQQQQ@  .  +pSGJIYERUHi  fQQQQQQQQQQQQ+  5trrrrrrrrrrr9  .rtrrrrrt$   QQQQQQQQQQQQQQQQQQQQQQQ",
"QQQQQQQQQQQQa     +sDHJJJKKDu  ;FQQQQQQQQQQQQHX orrrrrrrrrrry*  $trrrrtte   @QQQQQQQQQQQQQQQQQQQQQQQ",
"QQQQQQQQQQQQQ      sFHKKJJHf@  uGJIQQQQQQQQQYKp  1trrtrrrrrt2   6trrrtet*   sQQQQQQQQQQQQQQQQQQQQQQQ",
"QQQQQQQQQQQQQ>     iGHJJKJDu  XsHJJLIYQQYYYPJGD- .etrrrrrtt=   2trrrrrre.  XQQQQQQQQQQQQQQQQQQQQQQQQ",
"QQQQQQQQQQQQQQ;    @DKKJKJfX  ;DJJJJJJKJJJJJJHD>  6terttte#   1yrrrrrrtO   gQQQQQQQQQQQQQQQQQQQQQQQQ",
"QQQQQQQQQQQQQQQ+    :gGJHg@   pHJJKKKKJKKKKKJHD>  6tre62#    1yrrrrrrt$   @QQQQQQQQQQQQQQQQQQQQQQQQQ",
"QQQQQQQQQQQQQQQQ      -;;X   +gJJKJJJKJJKJKJJHS-  .o..     .6trrrrrry1  X QQQQQQQQQQQQQQQQQQQQQQQQQQ",
"QQQQQQQQQQQQQQQQQ@           -FJJJKKKKKKJJKJHGd         .#1rtrrrrrry2    sQQQQQQQQQQQQQQQQQQQQQQQQQQ",
"QQQQQQQQQQQQQQQQQQa          @DGHJJJJJKJKJJJHF;  OOOO$=5rttrrrrrrry5    >QQQQQQQQQQQQQQQQQQQQQQQQQQQ",
"QQQQQQQQQQQQQQQQQQQQ@        +dSFHHJJJJJJHHGGu  *tttttttrrrrrrtrry5    @QQQQQQQQQQQQQQQQQQQQQQQQQQQQ",
"QQQQQQQQQQQQQQQQQQQQQs        ;sgSFGGGHGGFDSu  ortrerrrrrrrrrrrte$    -QQQQQQQQQQQQQQQQQQQQQQQQQQQQQ",
"QQQQQQQQQQQQQQQQQQQQQQQ;       @uafggSSSSfs-  .errrrtrrrrrrrrtr1.    :QQQQQQQQQQQQQQQQQQQQQQQQQQQQQQ",
"QQQQQQQQQQQQQQQQQQQQQQQQQ;       X@;:>>>:+   o6trrrrrrrrttttt2.     uQQQQQQQQQQQQQQQQQQQQQQQQQQQQQQQ",
"QQQQQQQQQQQQQQQQQQQQQQQQQQQ:               o1tttttttttttre1*o      dQQQQQQQQQQQQQQQQQQQQQQQQQQQQQQQQ",
"QQQQQQQQQQQQQQQQQQQQQQQQQQQQQuX           o=255666521=$Oo     .  ;QQQQQQQQQQQQQQQQQQQQQQQQQQQQQQQQQQ",
"QQQQQQQQQQQQQQQQQQQQQQQQQQQQQQQQ-                              XQQQQQQQQQQQQQQQQQQQQQQQQQQQQQQQQQQQQ",
"QQQQQQQQQQQQQQQQQQQQQQQQQQQQQQQQQQp+       . X      ..       >QQQQQQQQQQQQQQQQQQQQQQQQQQQQQQQQQQQQQQ",
"QQQQQQQQQQQQQQQQQQQQQQQQQQQQQQQQQQQQQQQp:+               +>QQQQQQQQQQQQQQQQQQQQQQQQQQQQQQQQQQQQQQQQQ",
"QQQQQQQQQQQQQQQQQQQQQQQQQQQQQQQQQQQQQQQQQQQQQQgsu::upsfQQQQQQQQQQQQQQQQQQQQQQQQQQQQQQQQQQQQQQQQQQQQQ",
"QQQQQQQQQQQQQQQQQQQQQQQQQQQQQQQQQQQQQQQQQQQQQQQQQQQQQQQQQQQQQQQQQQQQQQQQQQQQQQQQQQQQQQQQQQQQQQQQQQQQ",
"QQQQQQQQQQQQQQQQQQQQQQQQQQQQQQQQQQQQQQQQQQQQQQQQQQQQQQQQQQQQQQQQQQQQQQQQQQQQQQQQQQQQQQQQQQQQQQQQQQQQ",
"QQQQQQQQQQQQQQQQQQQQQQQQQQQQQQQQQQQQQQQQQQQQQQQQQQQQQQQQQQQQQQQQQQQQQQQQQQQQQQQQQQQQQQQQQQQQQQQQQQQQ",
"QQQQQQQQQQQQQQQQQQQQQQQQQQQQQQQQQQQQQQQQQQQQQQQQQQQQQQQQQQQQQQQQQQQQQQQQQQQQQQQQQQQQQQQQQQQQQQQQQQQQ",
"QQQQQQQQQQQQQQQQQQQQQQQQQQQQQQQQQQQQQQQQQQQQQQQQQQQQQQQQQQQQQQQQQQQQQQQQQQQQQQQQQQQQQQQQQQQQQQQQQQQQ",
"QQQQQQQQQQQQQQQQQQQQQQQQQQQQQQQQQQQQQQQQQQQQQQQQQQQQQQQQQQQQQQQQQQQQQQQQQQQQQQQQQQQQQQQQQQQQQQQQQQQQ",
"QQQQQQQQQQQQQQQQQQQQQQQQQQQQQQQQQQQQQQQQQQQQQQQQQQQQQQQQQQQQQQQQQQQQQQQQQQQQQQQQQQQQQQQQQQQQQQQQQQQQ",
"QQQQQQQQQQQQQQQQQQQQQQQQQQQQQQQQQQQQQQQQQQQQQQQQQQQQQQQQQQQQQQQQQQQQQQQQQQQQQQQQQQQQQQQQQQQQQQQQQQQQ",
"QQQQQQQQQQQQQQQQQQQQQQQQQQQQQQQQQQQQQQQQQQQQQQQQQQQQQQQQQQQQQQQQQQQQQQQQQQQQQQQQQQQQQQQQQQQQQQQQQQQQ",
"QQQQQQQQQQQQQQQQQQQQQQQQQQQQQQQQQQQQQQQQQQQQQQQQQQQQQQQQQQQQQQQQQQQQQQQQQQQQQQQQQQQQQQQQQQQQQQQQQQQQ",
"QQQQQQQQQQQQQQQQQQQQQQQQQQQQQQQQQQQQQQQQQQQQQQQQQQQQQQQQQQQQQQQQQQQQQQQQQQQQQQQQQQQQQQQQQQQQQQQQQQQQ",
"QQQQQQQQQQQQQQQQQQQQQQQQQQQQQQQQQQQQQQQQQQQQQQQQQQQQQQQQQQQQQQQQQQQQQQQQQQQQQQQQQQQQQQQQQQQQQQQQQQQQ",
"QQQQQQQQQQQQQQQQQQQQQQQQQQQQQQQQQQQQQQQQQQQQQQQQQQQQQQQQQQQQQQQQQQQQQQQQQQQQQQQQQQQQQQQQQQQQQQQQQQQQ"
};
