/* XPM */
static char *result[] = {
/* columns rows colors chars-per-pixel */
"101 101 66 1 ",
"  c #A0A395",
". c #A1A496",
"X c #A5A799",
"o c #A9AB9C",
"O c #A4A698",
"+ c #A5A89A",
"@ c #A9AC9D",
"# c #A3A698",
"$ c #ADAFA0",
"% c #B0B2A2",
"& c #ACAF9F",
"* c #A4A798",
"= c #A6A99A",
"- c #AEB0A0",
"; c #ABAD9E",
": c #A5A899",
"> c #B1B3A3",
", c #A6A99B",
"< c #AEB0A1",
"1 c #A4A799",
"2 c #A7A99B",
"3 c #A7AA9B",
"4 c #AEB1A1",
"5 c #ABAE9E",
"6 c #ADB0A0",
"7 c #A1A395",
"8 c #AFB1A1",
"9 c #A6A899",
"0 c #ADAF9F",
"q c #ACAE9E",
"w c #A1A495",
"e c #A6A89A",
"r c #A7A99A",
"t c #A7AA9A",
"y c #A3A697",
"u c #A9AC9C",
"i c #A1A596",
"p c #A3A597",
"a c #AAAC9D",
"s c #A8AB9B",
"d c #B0B3A3",
"f c #A2A697",
"g c #A8AB9C",
"h c #AFB2A2",
"j c #AFB1A2",
"k c #AAAD9E",
"l c #B0B2A3",
"z c #A2A597",
"x c #A9AB9D",
"c c #A8AA9C",
"v c #A2A596",
"b c #A2A497",
"n c #AAAD9D",
"m c #A5A798",
"M c #A8AA9B",
"N c #ACAE9F",
"B c #ABAE9F",
"V c #B1B2A2",
"C c #B0B3A2",
"Z c #A2A496",
"A c #A5A99A",
"S c #ABAD9F",
"D c #ABAD9D",
"F c #AEB1A0",
"G c #AEB1A2",
"H c white",
/* pixels */
"                .                                                                  .                 ",
"               XoO                                                               .+@#                ",
"              X$%&*                                                             .=-%;#               ",
"             :$>>>&*                                                           .,<>>%;#              ",
"            :$>>>>>&*                                                         .,<>>>>%;#             ",
"           :$>>>>>>>&1                                                       .2<>>>>>>%;#            ",
"          :$>>>>>>>>>&1                                                     .3<>>>>>>>>%;#           ",
"         :$>>>>>>>>>>>&1                                                   .34>>>>>>>>>>%;#          ",
"        :$>>>>>>>>>>>>>&1                                                 .34>>>>>>>>>>>>%;#         ",
"       :$>>>>>>>>>>>>>>>&1                                               .34>>>>>>>>>>>>>>%5#        ",
"      :6>>>>>>>>>>>>>>>>>&X7                                            .38>>>>>>>>>>>>>>>>%5#       ",
"     96>>>>>>>>>>>>>>>>>>>0X7                                          .38>>>>>>>>>>>>>>>>>>%qO      ",
"    9->>>>>>>>>>>>>>>>>>>>>&:w                                        .38>>>>>>>>>>>>>>>>>>>>%qO     ",
"   e->>>>>>>>>>>>>>>>>>>>>>>&:w                                      .38>>>>>>>>>>>>>>>>>>>>>>%qO    ",
"  e<>>>>>>>>>>>>>>>>>>>>>>>>>0:w                                    .38>>>>>>>>>>>>>>>>>>>>>>>>%qO   ",
" =<>>>>>>>>>>>>>>>>>>>>>>>>>>>0:w                                  .38>>>>>>>>>>>>>>>>>>>>>>>>>>%qO  ",
"r<>>>>>>>>>>>>>>>>>>>>>>>>>>>>>0X                                 .38>>>>>>>>>>>>>>>>>>>>>>>>>>>>%qO ",
"@%>>>>>>>>>>>>>>>>>>>>>>>>>>>>>8t.                                y@>>>>>>>>>>>>>>>>>>>>>>>>>>>>>>-1 ",
"#@%>>>>>>>>>>>>>>>>>>>>>>>>>>>%u3@:.                            i3@,5>>>>>>>>>>>>>>>>>>>>>>>>>>>>83. ",
" pa%>>>>>>>>>>>>>>>>>>>>>>>>>%o3&%$+.                          .s8%;=5>>>>>>>>>>>>>>>>>>>>>>>>>>83.  ",
"  p@%>>>>>>>>>>>>>>>>>>>>>>>%o2&%>>$+.                        .s8>>%;=;d>>>>>>>>>>>>>>>>>>>>>>>8t.   ",
"   f@%>>>>>>>>>>>>>>>>>>>>>%o3&%>>>>$+.                      .g8>>>>%;=5d>>>>>>>>>>>>>>>>>>>>>8t.    ",
"    y@%>>>>>>>>>>>>>>>>>>>ho20%>>>>>>$+.                    .s8>>>>>>%;=;d>>>>>>>>>>>>>>>>>>>83.     ",
"     y@%>>>>>>>>>>>>>>>>>hg20%>>>>>>>>$+.                  ig8>>>>>>>>%;=;d>>>>>>>>>>>>>>>>>83.      ",
"      y@%>>>>>>>>>>>>>>>jg20%>>>>>>>>>>6e.                igj>>>>>>>>>>%;=kl>>>>>>>>>>>>>>>43.       ",
"       y@%>>>>>>>>>>>>>hg2$l>>>>>>>>>>>>6e.              .g8>>>>>>>>>>>>%;=kd>>>>>>>>>>>>>43.        ",
"        y@%>>>>>>>>>>>jg3$l>>>>>>>>>>>>>>6e.            .g8>>>>>>>>>>>>>>%;=kl>>>>>>>>>>>43.         ",
"         zx%>>>>>>>>>jc36d>>>>>>>>>>>>>>>>-e.          vg8>>>>>>>>>>>>>>>>%;=kl>>>>>>>>>42.          ",
"          pu%>>>>>>>jc36>>>>>>>>>>>>>>>>>>>-=.        zg8>>>>>>>>>>>>>>>>>>%;=kl>>>>>>><2.           ",
"           vo%>>>>>jc36>>>>>>>>>>>>>>>>>>>>>-=.      boj>>>>>>>>>>>>>>>>>>>>%;=kl>>>>><2.            ",
"            vo%>>>jc36>>>>>>>>>>>>>>>>>>>>>>>-=.    zoj>>>>>>>>>>>>>>>>>>>>>>%;2n%>>><,.             ",
"             vo%>jc36>>>>>>>>>>>>>>>>>>>>>>>>>-=.  zuj>>>>>>>>>>>>>>>>>>>>>>>>%5rn%><,.              ",
"              vo$c3->>>>>>>>>>>>>>>>>>>>>>>>>>>-=wzuj>>>>>>>>>>>>>>>>>>>>>>>>>>%52a6,.               ",
"               vm3->>>>>>>>>>>>>>>>>>>>>>>>>>>>>-M@j>>>>>>>>>>>>>>>>>>>>>>>>>>>>%Ne*.                ",
"                 t8>>>>>>>>>>>>>>>>>>>>>>>>>>>>>j@;l>>>>>>>>>>>>>>>>>>>>>>>>>>>>>$*                  ",
"                 zu%>>>>>>>>>>>>>>>>>>>>>>>>>>>%@#1Bl>>>>>>>>>>>>>>>>>>>>>>>>>>>-=.                  ",
"                  vuh>>>>>>>>>>>>>>>>>>>>>>>>>h@p  1Bl>>>>>>>>>>>>>>>>>>>>>>>>>-=.                   ",
"                   voj>>>>>>>>>>>>>>>>>>>>>>>h@z    1Bl>>>>>>>>>>>>>>>>>>>>>>>-=.                    ",
"                    boj>>>>>>>>>>>>>>>>>>>>>h@z      1Bl>>>>>>>>>>>>>>>>>>>>>-=.                     ",
"                     bgj>>>>>>>>>>>>>>>>>>>j@z        1B%>>>>>>>>>>>>>>>>>>>6=.                      ",
"                      bg8>>>>>>>>>>>>>>>>>jxz          *5%>>>>>>>>>>>>>>>>>6e.                       ",
"                       .g8>>>>>>>>>>>>>>>jxz            *5%>>>>>>>>>>>>>>>6e.                        ",
"                        .g8>>>>>>>>>>>>>joz              *5V>>>>>>>>>>>>>6e.                         ",
"                         ig8>>>>>>>>>>>joz                *5%>>>>>>>>>>>$e.                          ",
"                          ig8>>>>>>>>>joz                  *5%>>>>>>>>>$+.                           ",
"                           vg8>>>>>>>joz                    *5%>>>>>>>$+.                            ",
"                            vg8>>>>>jgz                      *;%>>>>>$+.                             ",
"                             vg8>>>jgz                        #;%>>>$+.                              ",
"                              vM8>8gz                          #;C>$+.                               ",
"                               ZM0gv                            *;&+.                                ",
"                                Xn:                             .3az                                 ",
"                               ya8;#                           w+$-M.                                ",
"                              ya%>%;#                         w+$>>8Mi                               ",
"                             #k%>>>%kO                       w+$>>>>8si                              ",
"                            #k%>>>>>%;O                     w+$>>>>>>8gi                             ",
"                           #k%>>>>>>>%;*                   we$>>>>>>>>8gi                            ",
"                          #;%>>>>>>>>>%5*                 .e6>>>>>>>>>>8g.                           ",
"                         #;%>>>>>>>>>>>%5*               .e6>>>>>>>>>>>>8g.                          ",
"                        #;%>>>>>>>>>>>>>%5*             .e->>>>>>>>>>>>>>8gZ                         ",
"                       #;%>>>>>>>>>>>>>>>%5*           .=->>>>>>>>>>>>>>>>8gZ                        ",
"                      #;%>>>>>>>>>>>>>>>>>%5*         .=->>>>>>>>>>>>>>>>>>8oZ                       ",
"                     #;%>>>>>>>>>>>>>>>>>>>%5*       .=->>>>>>>>>>>>>>>>>>>>8oZ                      ",
"                    #;%>>>>>>>>>>>>>>>>>>>>>%5*     .=->>>>>>>>>>>>>>>>>>>>>>joZ                     ",
"                   #;l>>>>>>>>>>>>>>>>>>>>>>>%5*   .=->>>>>>>>>>>>>>>>>>>>>>>>jov                    ",
"                  #5d>>>>>>>>>>>>>>>>>>>>>>>>>%B1 .=->>>>>>>>>>>>>>>>>>>>>>>>>>hov                   ",
"                 O5d>>>>>>>>>>>>>>>>>>>>>>>>>>>lB:t->>>>>>>>>>>>>>>>>>>>>>>>>>>>ho.                  ",
"                .3h>>>>>>>>>>>>>>>>>>>>>>>>>>>>>%;N>>>>>>>>>>>>>>>>>>>>>>>>>>>>>>6*.                 ",
"               O32B%>>>>>>>>>>>>>>>>>>>>>>>>>>>CNA3->>>>>>>>>>>>>>>>>>>>>>>>>>>>4o=2v                ",
"              OBhn2B%>>>>>>>>>>>>>>>>>>>>>>>>>dN1 .,->>>>>>>>>>>>>>>>>>>>>>>>>>4g2$jov               ",
"             *N>>%n2S%>>>>>>>>>>>>>>>>>>>>>>>lN1   .=->>>>>>>>>>>>>>>>>>>>>>>>4g2$>>%ov              ",
"            *N>>>>%n2;%>>>>>>>>>>>>>>>>>>>>>lN1     .=->>>>>>>>>>>>>>>>>>>>>>4g2$>>>>%ov             ",
"           *N>>>>>>%n=;%>>>>>>>>>>>>>>>>>>>lN1       .=->>>>>>>>>>>>>>>>>>>>4gt6>>>>>>%ov            ",
"          *N>>>>>>>>%n=;%>>>>>>>>>>>>>>>>>lq*         .=6>>>>>>>>>>>>>>>>>><g36>>>>>>>>%ov           ",
"         1N>>>>>>>>>>%n=;%>>>>>>>>>>>>>>>lq*           .=6>>>>>>>>>>>>>>>><g36>>>>>>>>>>%ov          ",
"        1N>>>>>>>>>>>>lk=;%>>>>>>>>>>>>>lq*             .=6>>>>>>>>>>>>>><g36>>>>>>>>>>>>%op         ",
"       1&>>>>>>>>>>>>>>lD=;%>>>>>>>>>>>l5*               .e6>>>>>>>>>>>><g36>>>>>>>>>>>>>>%@z        ",
"      *&>>>>>>>>>>>>>>>>dD=;%>>>>>>>>>l5O                 .+$>>>>>>>>>><g36>>>>>>>>>>>>>>>>%@z       ",
"     *&>>>>>>>>>>>>>>>>>>d;=;%>>>>>>>%5#                   .+$>>>>>>>><g3->>>>>>>>>>>>>>>>>>%@z      ",
"    *&>>>>>>>>>>>>>>>>>>>>>;=;%>>>>>C5#                     .+$>>>>>>-s3->>>>>>>>>>>>>>>>>>>>%@z     ",
"   10>>>>>>>>>>>>>>>>>>>>>>>5=;%>>>%5#                       .+$>>>>-s3->>>>>>>>>>>>>>>>>>>>>>%@z    ",
"  10>>>>>>>>>>>>>>>>>>>>>>>>>5=;%>%;#                         .+$>>-s3->>>>>>>>>>>>>>>>>>>>>>>>%@p   ",
".10>>>>>>>>>>>>>>>>>>>>>>>>>>>5=;8;#                           .+$-s3->>>>>>>>>>>>>>>>>>>>>>>>>>%ap  ",
":$>>>>>>>>>>>>>>>>>>>>>>>>>>>>>;==y                             .1=3F>>>>>>>>>>>>>>>>>>>>>>>>>>>>%az ",
"@%>>>>>>>>>>>>>>>>>>>>>>>>>>>>>8t.                                zk>>>>>>>>>>>>>>>>>>>>>>>>>>>>>>4: ",
"*;%>>>>>>>>>>>>>>>>>>>>>>>>>>>l;#                                 .+$>>>>>>>>>>>>>>>>>>>>>>>>>>>>jg. ",
" #;%>>>>>>>>>>>>>>>>>>>>>>>>>l;#                                   w:0>>>>>>>>>>>>>>>>>>>>>>>>>>jg.  ",
"  #;%>>>>>>>>>>>>>>>>>>>>>>>lk#                                     w:0>>>>>>>>>>>>>>>>>>>>>>>>jg.   ",
"   #;%>>>>>>>>>>>>>>>>>>>>>dk#                                       w:0>>>>>>>>>>>>>>>>>>>>>>jg.    ",
"    #;%>>>>>>>>>>>>>>>>>>>dk#                                         w:0>>>>>>>>>>>>>>>>>>>>jg.     ",
"     yD%>>>>>>>>>>>>>>>>>%k#                                           7X&>>>>>>>>>>>>>>>>>>jg.      ",
"      yn%>>>>>>>>>>>>>>>%ky                                              1&>>>>>>>>>>>>>>>>jg.       ",
"       yn%>>>>>>>>>>>>>%ap                                                10>>>>>>>>>>>>>>Gg.        ",
"        yn%>>>>>>>>>>>lap                                                  10>>>>>>>>>>>>Gg.         ",
"         yn%>>>>>>>>>%ap                                                    10>>>>>>>>>>4s.          ",
"          ya%>>>>>>>%ap                                                      10>>>>>>>>4M.           ",
"           pa%>>>>>%ap                                                        10>>>>>><M.            ",
"            pa%>>>%@z                                                          1&>>>><M.             ",
"             za%>%@z                                                            1&>><M.              ",
"              za8@z                                                              *N<3.               ",
"               zez                                                                #:.                ",
"                                                                                                     "
};
