/* XPM */
static char *result[] = {
/* columns rows colors chars-per-pixel */
"30 30 4 1 ",
"  c #5A4636",
". c #745B46",
"X c #8B784E",
"o c #9C8454",
/* pixels */
"XXXXXXXXXXXXXX.ooooooo.XXXXXXX",
"XXXXXXXXXXXXXX ooooooo.XXXXXXX",
"XXXXXXXXXXXXXX ooooooo.XXXXXXX",
"XXXXXXXXXXXXXX.ooooooo XXXXXXX",
"XXXXXXXXXXXXXX.ooooooo.XXXXXXX",
"XXXXXXXXXXXXXX.ooooooo XXXXXXX",
"XXXXXXXXXXXXXX.ooooooo.XXXXXXX",
".... ......   .ooooooo.XXXXXXX",
"oooooooooooooo ooooooo.XXXXXXX",
"oooooooooooooo.ooooooo.XXXXXXX",
"oooooooooooooo.ooooooo.XXXXXXX",
"oooooooooooooo.ooooooo XXXXXXX",
"oooooooooooooo.ooooooo.XXXXXXX",
"oooooooooooooo.ooooooo.XXXXXXX",
"oooooooooooooo.ooooooo.XXXXXXX",
" . ... ....  .. .  .. .  .....",
"oooooo.XXXXXXX.XXXXXXXXXXXXXXX",
"oooooo.XXXXXXX.XXXXXXXXXXXXXXX",
"oooooo.XXXXXXX.XXXXXXXXXXXXXXX",
"oooooo.XXXXXXX.XXXXXXXXXXXXXXX",
"oooooo.XXXXXXX.XXXXXXXXXXXXXXX",
"oooooo.XXXXXXX.XXXXXXXXXXXXXXX",
"oooooo.XXXXXXX.XXXXXXXXXXXXXXX",
"oooooo.XXXXXXX ... .... ...  .",
"oooooo XXXXXXX.ooooooooooooooo",
"oooooo.XXXXXXX.ooooooooooooooo",
"oooooo.XXXXXXX.ooooooooooooooo",
"oooooo XXXXXXX.ooooooooooooooo",
"oooooo.XXXXXXX.ooooooooooooooo",
"oooooo XXXXXXX.ooooooooooooooo"
};